<svg id="Layer_3" data-name="Layer 3" xmlns="http://www.w3.org/2000/svg" width="100" height="25" viewBox="0 0 100 25">
  <g>
    <path d="M13.44,24.67H8.64L5.53,15.38,4.27,16.54v8.13H0V.38H4.27V10.93c.22-.65.65-1.69,1.3-3.11L8.88.38h4.65l-5,10.88Z" style="fill: #fff"/>
    <path d="M29.86,12.49c0,4.09-.65,7.19-1.95,9.32A6.27,6.27,0,0,1,22.21,25a6.3,6.3,0,0,1-5.68-3.21c-1.31-2.13-2-5.25-2-9.33s.65-7.13,2-9.26A6.32,6.32,0,0,1,22.23,0a6.26,6.26,0,0,1,5.69,3.17C29.22,5.29,29.86,8.39,29.86,12.49ZM19,12.49c0,4.7,1.05,7,3.17,7a2.53,2.53,0,0,0,2.39-1.71,13.58,13.58,0,0,0,.78-5.33,13.65,13.65,0,0,0-.79-5.37,2.52,2.52,0,0,0-2.36-1.74Q19,5.38,19,12.49Z" style="fill: #fff"/>
    <path d="M39.64,24.67H35.39V5.75H31.55V.38H43.47V5.75H39.64Z" style="fill: #fff"/>
    <path d="M45.72,24.67V.38H50v19H56v5.3Z" style="fill: #fff"/>
    <path d="M67.89,24.67H58.55V.38h9.34V5.65H62.8V9.47h4.71v5.26H62.8v4.59h5.09Z" style="fill: #fff"/>
    <path d="M80.3,24.67l-.78-4.55H74.41l-.8,4.55H68.94L74.08.28h5.67L85,24.67Zm-1.66-9.94-.68-4c-.16-.89-.35-2-.57-3.44s-.38-2.42-.45-3c-.06.56-.19,1.49-.38,2.79s-.61,3.84-1.27,7.65Z" style="fill: #fff"/>
    <path d="M100,12c0,4-.72,7.18-2.17,9.37a6.9,6.9,0,0,1-6.09,3.29H86.65V.38h5.44a6.69,6.69,0,0,1,5.85,3C99.31,5.37,100,8.24,100,12Zm-4.41.23a11,11,0,0,0-.86-4.95,2.77,2.77,0,0,0-2.6-1.61H90.9V19.29h.94a3,3,0,0,0,2.84-1.74A11.86,11.86,0,0,0,95.59,12.24Z" style="fill: #fff"/>
  </g>
</svg>
