<?xml version="1.0" encoding="UTF-8"?><svg id="Layer_2" xmlns="http://www.w3.org/2000/svg" width="50" height="50" viewBox="0 0 33.18 33.18"><defs><style>.cls-1{fill:#00d563;}.cls-1,.cls-2{stroke-linecap:round;stroke-linejoin:round;}.cls-1,.cls-2,.cls-3{stroke:#fff;}.cls-2,.cls-3{fill:none;}.cls-4{fill:#fff;}.cls-3{stroke-miterlimit:10;}</style></defs><g id="reredone"><g><circle class="cls-1" cx="16.59" cy="16.59" r="16.09"/><circle class="cls-3" cx="13.15" cy="13.37" r="2"/><circle class="cls-3" cx="14.11" cy="20.7" r="2"/><circle class="cls-4" cx="9.51" cy="17.5" r=".87"/><circle class="cls-4" cx="20.22" cy="22.45" r=".87"/><circle class="cls-4" cx="19.67" cy="13.92" r=".87"/><circle class="cls-2" cx="19.67" cy="17.5" r="1.21"/><path class="cls-2" d="M26.8,16.59c0,5.41-4.57,9.8-10.22,9.8s-10.22-4.39-10.22-9.8c0-4.76,3.53-8.72,8.2-9.62,.24,1.86,1.9,3.3,3.91,3.3,.64,0,1.25-.15,1.79-.42,.64,1.24,1.98,2.09,3.52,2.09,.57,0,1.11-.12,1.6-.33,.91,1.46,1.42,3.16,1.42,4.98Z"/></g></g></svg>
